HIERARCHY
ROOT SpineFinal_1_JNT
{
  OFFSET -240.393 59.2075 58.0007
  CHANNELS 6 Xposition Yposition Zposition Zrotation Xrotation Yrotation
  JOINT l_legIKClavicle_Root_JNT
  {
    OFFSET -3.98362 -0.106448 9.59625
    CHANNELS 6 Xposition Yposition Zposition Zrotation Xrotation Yrotation
    JOINT l_legBlendRoot_JNT
    {
      OFFSET 16.1374 0 0
      CHANNELS 6 Xposition Yposition Zposition Zrotation Xrotation Yrotation
      JOINT l_legBlendMiddle_JNT
      {
        OFFSET 27.0969 0 0
        CHANNELS 6 Xposition Yposition Zposition Zrotation Xrotation Yrotation
        JOINT l_legBlendEnd_JNT
        {
          OFFSET 24.8414 0 0
          CHANNELS 6 Xposition Yposition Zposition Zrotation Xrotation Yrotation
          JOINT l_legBlendTip_JNT
          {
            OFFSET 6.77858 0 0
            CHANNELS 6 Xposition Yposition Zposition Zrotation Xrotation Yrotation
            End Site
            {
              OFFSET 0 0 0
            }
          }
        }
      }
    }
  }
  JOINT SpineFinal_2_JNT
  {
    OFFSET -19.4897 0.465779 0.161909
    CHANNELS 6 Xposition Yposition Zposition Zrotation Xrotation Yrotation
    JOINT SpineFinal_3_JNT
    {
      OFFSET -19.0177 1.35185 3.1582
      CHANNELS 6 Xposition Yposition Zposition Zrotation Xrotation Yrotation
      JOINT SpineFinal_4_JNT
      {
        OFFSET -18.3853 5.40449 0.628163
        CHANNELS 6 Xposition Yposition Zposition Zrotation Xrotation Yrotation
        JOINT SpineFinal_5_JNT
        {
          OFFSET -17.4965 7.74564 1.43381
          CHANNELS 6 Xposition Yposition Zposition Zrotation Xrotation Yrotation
          JOINT SpineFinal_6_JNT
          {
            OFFSET -19.144 8.35871 0
            CHANNELS 6 Xposition Yposition Zposition Zrotation Xrotation Yrotation
            JOINT SpineFinal_7_JNT
            {
              OFFSET -16.3943 7.24542 0
              CHANNELS 6 Xposition Yposition Zposition Zrotation Xrotation Yrotation
              JOINT SpineFinal_8_JNT
              {
                OFFSET -19.3877 2.40349 0
                CHANNELS 6 Xposition Yposition Zposition Zrotation Xrotation Yrotation
                JOINT head_JNT
                {
                  OFFSET -13.796 -11.6756 0
                  CHANNELS 6 Xposition Yposition Zposition Zrotation Xrotation Yrotation
                  JOINT l_hornRoot_JNT
                  {
                    OFFSET -15.825 14.8229 15.3879
                    CHANNELS 6 Xposition Yposition Zposition Zrotation Xrotation Yrotation
                    JOINT l_hornMid_JNT
                    {
                      OFFSET 6.55118 0 0
                      CHANNELS 6 Xposition Yposition Zposition Zrotation Xrotation Yrotation
                      JOINT l_hornEnd_JNT
                      {
                        OFFSET 6.73503 0 0
                        CHANNELS 6 Xposition Yposition Zposition Zrotation Xrotation Yrotation
                        End Site
                        {
                          OFFSET 0 0 0
                        }
                      }
                    }
                  }
                  JOINT headJend_JNT
                  {
                    OFFSET 1.34858 -27.5886 0
                    CHANNELS 6 Xposition Yposition Zposition Zrotation Xrotation Yrotation
                    End Site
                    {
                      OFFSET 0 0 0
                    }
                  }
                  JOINT r_hornRoot_JNT
                  {
                    OFFSET -15.825 14.8229 -15.3879
                    CHANNELS 6 Xposition Yposition Zposition Zrotation Xrotation Yrotation
                    JOINT r_hornMid_JNT
                    {
                      OFFSET -2.40814 5.46468 -2.69372
                      CHANNELS 6 Xposition Yposition Zposition Zrotation Xrotation Yrotation
                      JOINT r_hornEnd_JNT
                      {
                        OFFSET -2.40922 6.0083 -1.85921
                        CHANNELS 6 Xposition Yposition Zposition Zrotation Xrotation Yrotation
                        End Site
                        {
                          OFFSET 0 0 0
                        }
                      }
                    }
                  }
                  JOINT m_upLip_JNT
                  {
                    OFFSET 4.72477 -9.87974 0
                    CHANNELS 6 Xposition Yposition Zposition Zrotation Xrotation Yrotation
                    JOINT l_lipUpRoot_JNT
                    {
                      OFFSET 2.68891 -0.690234 4.02874
                      CHANNELS 6 Xposition Yposition Zposition Zrotation Xrotation Yrotation
                      JOINT l_lipUpEnd_JNT
                      {
                        OFFSET 0 0 -14.9226
                        CHANNELS 6 Xposition Yposition Zposition Zrotation Xrotation Yrotation
                        End Site
                        {
                          OFFSET 0 0 0
                        }
                      }
                    }
                    JOINT m_upLipRoot_JNT
                    {
                      OFFSET 0 0 3.94939
                      CHANNELS 6 Xposition Yposition Zposition Zrotation Xrotation Yrotation
                      JOINT m_upLipEnd_JNT
                      {
                        OFFSET 0 0 15.0019
                        CHANNELS 6 Xposition Yposition Zposition Zrotation Xrotation Yrotation
                        End Site
                        {
                          OFFSET 0 0 0
                        }
                      }
                    }
                    JOINT r_lipUpRoot_JNT
                    {
                      OFFSET -2.689 -0.690236 4.02875
                      CHANNELS 6 Xposition Yposition Zposition Zrotation Xrotation Yrotation
                      JOINT r_lipUpEnd_JNT
                      {
                        OFFSET 9.35075e-005 -0.000392738 14.9226
                        CHANNELS 6 Xposition Yposition Zposition Zrotation Xrotation Yrotation
                        End Site
                        {
                          OFFSET 0 0 0
                        }
                      }
                    }
                  }
                  JOINT m_DnLip_JNT
                  {
                    OFFSET 6.0207 -9.81639 0
                    CHANNELS 6 Xposition Yposition Zposition Zrotation Xrotation Yrotation
                    JOINT l_lipDn_JNT
                    {
                      OFFSET 2.71301 -0.162748 3.99146
                      CHANNELS 6 Xposition Yposition Zposition Zrotation Xrotation Yrotation
                      JOINT l_lipEnd_JNT
                      {
                        OFFSET 0 0 -14.9599
                        CHANNELS 6 Xposition Yposition Zposition Zrotation Xrotation Yrotation
                        End Site
                        {
                          OFFSET 0 0 0
                        }
                      }
                    }
                    JOINT m_dnLip_JNT
                    {
                      OFFSET 0 -0.0431035 3.99141
                      CHANNELS 6 Xposition Yposition Zposition Zrotation Xrotation Yrotation
                      JOINT m_dnLipEnd_JNT
                      {
                        OFFSET 0 0 14.9599
                        CHANNELS 6 Xposition Yposition Zposition Zrotation Xrotation Yrotation
                        End Site
                        {
                          OFFSET 0 0 0
                        }
                      }
                    }
                    JOINT r_lipDn_JNT
                    {
                      OFFSET -2.71301 -0.162761 3.99141
                      CHANNELS 6 Xposition Yposition Zposition Zrotation Xrotation Yrotation
                      JOINT r_lipDnEnd_JNT
                      {
                        OFFSET 0 0 14.9599
                        CHANNELS 6 Xposition Yposition Zposition Zrotation Xrotation Yrotation
                        End Site
                        {
                          OFFSET 0 0 0
                        }
                      }
                    }
                  }
                }
              }
            }
          }
          JOINT l_FwClavicleRoot_JNT
          {
            OFFSET -2.21979 -5.84701 5.95936
            CHANNELS 6 Xposition Yposition Zposition Zrotation Xrotation Yrotation
            JOINT l_FwLegBlendRoot_JNT
            {
              OFFSET 21.051 0 0
              CHANNELS 6 Xposition Yposition Zposition Zrotation Xrotation Yrotation
              JOINT l_FwLegBlendMiddle_JNT
              {
                OFFSET 33.1145 0 0
                CHANNELS 6 Xposition Yposition Zposition Zrotation Xrotation Yrotation
                JOINT l_FwLegBlendTip_JNT
                {
                  OFFSET 29.9221 0 0
                  CHANNELS 6 Xposition Yposition Zposition Zrotation Xrotation Yrotation
                  JOINT l_FwLegBlendEnd_JNT
                  {
                    OFFSET 9.62649 0 0
                    CHANNELS 6 Xposition Yposition Zposition Zrotation Xrotation Yrotation
                    End Site
                    {
                      OFFSET 0 0 0
                    }
                  }
                }
              }
            }
          }
          JOINT r_FwClavicleRoot_JNT
          {
            OFFSET 0.920315 -2.84654 -2.41328
            CHANNELS 6 Xposition Yposition Zposition Zrotation Xrotation Yrotation
            JOINT r_FwLegBlendRoot_JNT
            {
              OFFSET 1.1653 -12.7157 -16.7361
              CHANNELS 6 Xposition Yposition Zposition Zrotation Xrotation Yrotation
              JOINT r_FwLegBlendMiddle_JNT
              {
                OFFSET 16.2308 -5.97551 28.2387
                CHANNELS 6 Xposition Yposition Zposition Zrotation Xrotation Yrotation
                JOINT r_FwLegBlendTip_JNT
                {
                  OFFSET 26.7017 -9.19239 -9.89204
                  CHANNELS 6 Xposition Yposition Zposition Zrotation Xrotation Yrotation
                  JOINT r_FwLegBlendEnd_JNT
                  {
                    OFFSET 4.44874 -7.74942 3.58114
                    CHANNELS 6 Xposition Yposition Zposition Zrotation Xrotation Yrotation
                    End Site
                    {
                      OFFSET 0 0 0
                    }
                  }
                }
              }
            }
          }
        }
      }
    }
  }
  JOINT r_legIKClavicle_Root_JNT
  {
    OFFSET -3.18509 -0.623524 -9.59625
    CHANNELS 6 Xposition Yposition Zposition Zrotation Xrotation Yrotation
    JOINT r_legBlendRoot_JNT
    {
      OFFSET 13.2848 -5.74129 -7.13912
      CHANNELS 6 Xposition Yposition Zposition Zrotation Xrotation Yrotation
      JOINT r_legBlendMiddle_JNT
      {
        OFFSET 14.815 16.9375 15.0957
        CHANNELS 6 Xposition Yposition Zposition Zrotation Xrotation Yrotation
        JOINT r_legBlendEnd_JNT
        {
          OFFSET 23.6904 -6.58016 -3.54465
          CHANNELS 6 Xposition Yposition Zposition Zrotation Xrotation Yrotation
          JOINT r_legBlendTip_JNT
          {
            OFFSET 1.47758 -6.16068 -2.41079
            CHANNELS 6 Xposition Yposition Zposition Zrotation Xrotation Yrotation
            End Site
            {
              OFFSET 0 0 0
            }
          }
        }
      }
    }
  }
  JOINT tailRoot_JNT
  {
    OFFSET 2.82533 14.5514 0
    CHANNELS 6 Xposition Yposition Zposition Zrotation Xrotation Yrotation
    JOINT tailMid_JNT
    {
      OFFSET 7.87756 0 0
      CHANNELS 6 Xposition Yposition Zposition Zrotation Xrotation Yrotation
      JOINT tailEnd_JNT
      {
        OFFSET 6.52588 0 0
        CHANNELS 6 Xposition Yposition Zposition Zrotation Xrotation Yrotation
        End Site
        {
          OFFSET 0 0 0
        }
      }
    }
  }
  JOINT l_shoulderBkRoot_JNT
  {
    OFFSET -9.30511 7.998 11.2048
    CHANNELS 6 Xposition Yposition Zposition Zrotation Xrotation Yrotation
    JOINT l_shoulderBkMid_JNT
    {
      OFFSET 0 2.96129 0
      CHANNELS 6 Xposition Yposition Zposition Zrotation Xrotation Yrotation
      End Site
      {
        OFFSET 0 0 0
      }
    }
  }
  JOINT r_shoulderBkRoot_JNT
  {
    OFFSET -9.30514 7.99801 -11.2048
    CHANNELS 6 Xposition Yposition Zposition Zrotation Xrotation Yrotation
    JOINT r_shoulderBkMid_JNT
    {
      OFFSET 0 -2.25349 0
      CHANNELS 6 Xposition Yposition Zposition Zrotation Xrotation Yrotation
      End Site
      {
        OFFSET 0 0 0
      }
    }
  }
}
MOTION
Frames:	4
Frame Time:	0.0333333
239.493 59.4742 -61.2258 0.102108 -11.3668 -95.3163 -4.15252 0.0219983 9.59625 -57.5969 61.2999 -67.9538 16.1374 -9.18431e-007 1.72373e-006 -24.2473 6.41821 80.5519 27.0969 -2.84217e-014 -1.42109e-014 4.85888e-015 2.23633e-015 -62.0898 24.8414 0 -7.10543e-015 0.520135 0.352723 -50.686 6.77858 -5.68434e-014 -1.42109e-014 9.93923e-017 -4.96962e-017 -0 -19.3812 0.269236 0.650322 -1.28215 2.31705 17.8224 -18.3589 1.45074 4.5431 -1.89566 0.132064 18.7688 -18.2521 5.31565 -0.621237 -17.6865 -0.257739 -2.11833 -17.4769 7.87867 0.301881 -16.0008 0.23372 11.0675 -19.144 8.35871 -5.68434e-014 -16.6153 -3.18055e-015 3.17476 -16.3943 7.24542 8.52651e-014 -23.2533 -10.0322 4.45316 -19.3877 2.40349 -5.68434e-014 2.30045 6.36111e-015 -2.59814 -13.796 -11.6756 -2.84217e-014 -13.3674 3.18055e-015 -7.95139e-016 -15.825 14.8229 15.3879 101.697 2.63108 -24.2747 6.55118 1.13687e-013 0 0.859589 -7.56784 2.17198 6.73503 2.84217e-014 -2.84217e-014 -0 -1.59028e-015 -0 1.34858 -27.5886 -2.84217e-014 92.7985 1.11319e-014 -1.27222e-014 -15.825 14.8229 -15.3879 -10.9425 1.94931 -4.59467 -2.40814 5.46468 -2.69372 0.823838 -7.58668 2.41234 -2.40922 6.0083 -1.85921 -3.97569e-016 0 -0 4.72477 -9.87974 -2.84217e-014 92.7985 3.50417e-015 -90 2.68891 -0.690234 4.02874 -180 7.01671e-015 180 0 0 -14.9226 1.59028e-015 7.95139e-016 -3.18055e-015 5.68434e-014 0 3.94939 1.59028e-015 0 9.54166e-015 2.84217e-014 0 15.0019 -1.59028e-015 2.38542e-015 -6.36111e-015 -2.689 -0.690236 4.02875 1.59028e-015 0 9.54166e-015 9.35075e-005 -0.000392738 14.9226 -1.59028e-015 2.38542e-015 -6.36111e-015 6.0207 -9.81639 0 92.7985 3.50417e-015 -90 2.71301 -0.162748 3.99146 -180 7.01671e-015 180 -2.84217e-014 2.84217e-014 -14.9599 1.59028e-015 7.95139e-016 -3.18055e-015 2.84217e-014 -0.0431035 3.99141 1.59028e-015 0 9.54166e-015 2.84217e-014 1.42109e-014 14.9599 -1.59028e-015 2.38542e-015 -6.36111e-015 -2.71301 -0.162761 3.99141 1.59028e-015 0 9.54166e-015 2.84217e-014 0 14.9599 -1.59028e-015 2.38542e-015 -6.36111e-015 -9.23457 -6.19862 5.15282 22.1208 25.2271 -122.644 21.051 5.08145e-008 9.83655e-007 79.3048 -72.2571 146.649 33.1145 8.3753e-007 -2.8019e-007 132.122 7.01671e-015 180 29.9221 1.42109e-014 0 13.6296 -1.64643 11.9312 9.62649 2.13163e-014 2.84217e-014 29.859 -1.7467e-015 90 9.88859 -0.0844564 -4.55559 -8.82693 0.456314 -7.94835 1.1653 -12.7157 -16.7361 36.1577 -63.5039 94.9222 16.2308 -5.97551 28.2387 145.472 12.62 139.432 26.7017 -9.19239 -9.89204 44.3475 6.74792 0.800274 4.44874 -7.74942 3.58114 29.859 -1.7467e-015 90 -4.83645 0.625701 -9.59625 -100.688 -9.24999 4.74057 13.2848 -5.74129 -7.13912 36.6125 0.672172 38.6815 14.815 16.9375 15.0957 -30.6733 27.4659 -46.3786 23.6904 -6.58016 -3.54465 71.9851 7.49025 -56.3 1.47758 -6.16068 -2.41079 -1.59028e-015 -6.36111e-015 -3.18055e-015 2.82533 14.5514 5.68434e-014 4.99157 -1.98785e-016 -9.80834 7.87756 -1.42109e-014 2.84217e-014 19.1217 -1.59028e-015 0.627549 6.52588 0 2.84217e-014 -5.8319e-015 -3.18055e-015 11.861 -9.30511 7.998 11.2048 -6.8505 -4.18474e-016 -90 0 3.11907 0 -4.96962e-017 7.95139e-016 -1.59028e-015 -9.30514 7.99801 -11.2048 173.149 4.18474e-016 -90 0 -3.79777 0 3.47873e-016 7.95139e-016 -0 
238.612 59.867 -63.93 0.505616 -11.3944 -93.881 -3.63165 -0.351697 9.59625 -52.829 61.2999 -67.9538 16.1374 -8.74734e-007 1.74675e-006 -25.0634 6.58877 76.906 27.0969 -5.68434e-014 -2.13163e-014 5.32803e-015 2.28602e-015 -61.1209 24.8414 5.68434e-014 7.10543e-015 0.927532 0.61657 -52.6983 6.77858 0 -1.42109e-014 -3.72721e-017 0 6.36111e-015 -19.4397 -0.0149476 0.431323 -0.474924 2.58309 16.9091 -18.3384 1.56294 4.5787 -1.97342 0.189888 18.9328 -18.2057 5.19593 -0.627338 -17.7346 -0.294992 -2.16644 -17.3379 8.03606 0.298838 -16.8429 0.209545 11.0598 -19.144 8.35871 -5.68434e-014 -16.6153 -3.18055e-015 3.20301 -16.3943 7.24542 2.84217e-014 -23.2533 -10.0322 4.45316 -19.3877 2.40349 -5.68434e-014 2.27445 0 -2.32544 -13.796 -11.6756 -2.84217e-014 -13.5284 0 7.95139e-016 -15.825 14.8229 15.3879 101.765 2.60051 -24.2778 6.55118 1.42109e-013 5.68434e-014 1.94045 -7.52587 2.31394 6.73503 2.84217e-014 -1.13687e-013 -0 0 6.36111e-015 1.34858 -27.5886 -2.84217e-014 92.7985 1.19271e-014 -1.59028e-014 -15.825 14.8229 -15.3879 -10.875 1.93454 -4.56735 -2.40814 5.46468 -2.69372 1.85974 -7.56365 2.85696 -2.40922 6.0083 -1.85921 5.96354e-016 0 -0 4.72477 -9.87974 8.52651e-014 92.7985 3.50417e-015 -90 2.68891 -0.690234 4.02874 180 7.01671e-015 -180 0 0 -14.9226 1.59028e-015 7.15625e-015 9.54166e-015 -2.84217e-014 1.42109e-014 3.94939 -7.95139e-016 0 -6.36111e-015 0 0 15.0019 -7.95139e-016 3.18055e-015 3.18055e-015 -2.689 -0.690236 4.02875 -7.95139e-016 0 -6.36111e-015 9.35075e-005 -0.000392738 14.9226 -7.95139e-016 3.18055e-015 3.18055e-015 6.0207 -9.81639 2.84217e-014 92.7985 3.50417e-015 -90 2.71301 -0.162748 3.99146 180 7.01671e-015 -180 0 1.42109e-014 -14.9599 1.59028e-015 7.15625e-015 9.54166e-015 5.68434e-014 -0.0431035 3.99141 -7.95139e-016 0 -6.36111e-015 -2.84217e-014 0 14.9599 -7.95139e-016 3.18055e-015 3.18055e-015 -2.71301 -0.162761 3.99141 -7.95139e-016 0 -6.36111e-015 0 -2.84217e-014 14.9599 -7.95139e-016 3.18055e-015 3.18055e-015 -8.60421 -6.30829 5.24936 24.7221 24.8109 -122.544 21.051 8.55163e-008 1.05255e-006 90.9988 -74.6367 158.721 33.1145 8.3753e-007 -2.8019e-007 135.567 7.01671e-015 180 29.9221 -2.13163e-014 0 7.96723 -3.23781 12.2545 9.62649 1.42109e-014 0 29.859 -1.7467e-015 90 10.6731 0.598904 -4.8041 -4.51799 1.23583 -7.27478 1.1653 -12.7157 -16.7361 34.6507 -66.0376 95.7663 16.2308 -5.97551 28.2387 145.312 12.4353 140.169 26.7017 -9.19239 -9.89204 43.4364 4.19737 0.112743 4.44874 -7.74942 3.58114 29.859 -1.7467e-015 90 -5.37056 1.21443 -9.59625 -106.601 -9.24999 4.74057 13.2848 -5.74129 -7.13912 39.2203 0.840946 38.0368 14.815 16.9375 15.0957 -33.5745 29.4013 -44.9969 23.6904 -6.58016 -3.54465 66.6933 7.04295 -55.903 1.47758 -6.16068 -2.41079 -1.59028e-015 -3.18055e-015 -0 2.82533 14.5514 -2.84217e-014 4.99157 1.98785e-016 -11.5141 7.87756 -5.68434e-014 0 19.1217 -3.18055e-015 0.00935035 6.52588 2.84217e-014 0 6.47882e-015 0 10.9384 -9.30511 7.998 11.2048 -6.8505 -4.18474e-016 -90 2.84217e-014 2.64228 0 4.96962e-017 -7.95139e-016 7.95139e-016 -9.30514 7.99801 -11.2048 173.149 4.18474e-016 -90 0 -4.38908 -1.42109e-014 1.98785e-016 7.95139e-016 -0 
237.696 60.2242 -66.6203 0.89061 -11.4061 -92.4728 -3.06197 -0.691382 9.59625 -47.8958 61.2999 -67.9538 16.1374 -8.25043e-007 1.75739e-006 -25.7879 6.84804 72.7406 27.0969 -2.84217e-014 0 5.22235e-015 2.08724e-015 -59.831 24.8414 2.84217e-014 2.13163e-014 1.29253 0.848213 -54.6796 6.77858 0 -1.42109e-014 4.96962e-017 4.96962e-017 -0 -19.4902 -0.275163 0.217149 0.275134 2.79604 15.9812 -18.3265 1.66496 4.59994 -2.03933 0.238258 19.0444 -18.1713 5.08697 -0.62156 -17.7693 -0.35969 -2.13018 -17.2087 8.18034 0.3078 -17.62 0.170121 11.1099 -19.144 8.35871 -8.52651e-014 -16.6153 0 3.14477 -16.3943 7.24542 5.68434e-014 -23.2533 -10.0322 4.45316 -19.3877 2.40349 0 2.32521 9.54166e-015 -2.02591 -13.796 -11.6756 2.84217e-014 -13.6267 -6.36111e-015 7.95139e-016 -15.825 14.8229 15.3879 101.619 2.66618 -24.2711 6.55118 1.7053e-013 -2.84217e-014 2.81327 -7.49004 2.42799 6.73503 1.42109e-014 -8.52651e-014 1.59028e-015 -6.36111e-015 3.18055e-015 1.34858 -27.5886 -5.68434e-014 92.7985 1.66979e-014 -1.27222e-014 -15.825 14.8229 -15.3879 -11.0187 1.96605 -4.62552 -2.40814 5.46468 -2.69372 2.6962 -7.53922 3.21569 -2.40922 6.0083 -1.85921 5.96354e-016 -6.36111e-015 -3.97569e-016 4.72477 -9.87974 5.68434e-014 92.7985 3.50417e-015 -90 2.68891 -0.690234 4.02874 180 7.01671e-015 180 2.84217e-014 -1.42109e-014 -14.9226 7.95139e-016 1.59028e-015 -3.18055e-015 0 0 3.94939 -1.59028e-015 -5.56597e-015 6.36111e-015 0 -1.42109e-014 15.0019 -1.59028e-015 0 3.18055e-015 -2.689 -0.690236 4.02875 -1.59028e-015 -5.56597e-015 6.36111e-015 9.35075e-005 -0.000392738 14.9226 -1.59028e-015 0 3.18055e-015 6.0207 -9.81639 5.68434e-014 92.7985 3.50417e-015 -90 2.71301 -0.162748 3.99146 180 7.01671e-015 180 2.84217e-014 -1.42109e-014 -14.9599 7.95139e-016 1.59028e-015 -3.18055e-015 0 -0.0431035 3.99141 -1.59028e-015 -5.56597e-015 6.36111e-015 2.84217e-014 0 14.9599 -1.59028e-015 0 3.18055e-015 -2.71301 -0.162761 3.99141 -1.59028e-015 -5.56597e-015 6.36111e-015 -2.84217e-014 -1.42109e-014 14.9599 -1.59028e-015 0 3.18055e-015 -8.37074 -6.34392 5.27827 25.7133 24.6591 -122.548 21.051 3.54274e-009 7.57444e-007 71.2393 -71.3196 140.057 33.1145 8.3753e-007 -2.8019e-007 125.19 7.01671e-015 180 29.9221 7.10543e-015 -2.84217e-014 5.2155 -2.95805 12.5022 9.62649 2.13163e-014 2.84217e-014 29.859 -1.7467e-015 90 11.2986 1.22964 -5.00394 -0.861292 1.96085 -6.79261 1.1653 -12.7157 -16.7361 31.6466 -67.1287 94.3406 16.2308 -5.97551 28.2387 144.878 11.9066 142.231 26.7017 -9.19239 -9.89204 44.016 0.681065 -1.35549 4.44874 -7.74942 3.58114 29.859 -1.7467e-015 90 -5.77705 1.75916 -9.59625 -111.657 -9.24999 4.74057 13.2848 -5.74129 -7.13912 38.7892 1.51101 37.7277 14.815 16.9375 15.0957 -34.6631 30.0935 -44.4567 23.6904 -6.58016 -3.54465 60.7018 6.55403 -55.6256 1.47758 -6.16068 -2.41079 -8.82781e-032 3.18055e-015 1.59028e-015 2.82533 14.5514 0 4.99157 0 -12.8432 7.87756 -2.84217e-014 2.84217e-014 19.1217 -1.59028e-015 -0.600817 6.52588 -4.26326e-014 -5.68434e-014 -2.73437e-016 1.59028e-015 9.75619 -9.30511 7.998 11.2048 -6.8505 -4.18474e-016 -90 -2.84217e-014 2.14896 0 2.23633e-016 1.59028e-015 3.97569e-016 -9.30514 7.99801 -11.2048 173.149 4.18474e-016 -90 0 -4.89462 0 -7.45443e-017 -7.95139e-016 3.97569e-016 
236.749 60.4783 -69.2907 1.22699 -11.3989 -91.0813 -2.44368 -0.990098 9.59625 -42.7884 61.2999 -67.9538 16.1374 -7.69528e-007 1.75423e-006 -26.4482 7.18085 68.1653 27.0969 8.52651e-014 -2.4869e-014 5.99076e-015 2.38542e-015 -58.4145 24.8414 -2.84217e-014 7.10543e-015 1.61681 1.05927 -56.5455 6.77858 0 -1.42109e-014 -1.10348e-032 -9.93923e-017 -6.36111e-015 -19.527 -0.462216 0.000642466 0.835144 2.8992 15.0144 -18.3223 1.73819 4.60799 -2.08532 0.263793 19.1103 -18.1523 5.00991 -0.60265 -17.7884 -0.442516 -1.99832 -17.1154 8.28296 0.329988 -18.1762 0.11836 11.2225 -19.144 8.35871 -2.84217e-014 -16.6153 0 3.0092 -16.3943 7.24542 5.68434e-014 -23.2533 -10.0322 4.45316 -19.3877 2.40349 -2.84217e-014 2.44029 6.36111e-015 -1.70895 -13.796 -11.6756 -2.84217e-014 -13.6645 -3.18055e-015 -1.59028e-015 -15.825 14.8229 15.3879 101.281 2.8182 -24.2549 6.55118 1.27898e-013 0 3.38806 -7.4655 2.50279 6.73503 2.84217e-014 -2.84217e-014 3.18055e-015 -1.59028e-015 -0 1.34858 -27.5886 0 92.7985 1.11319e-014 -1.90833e-014 -15.825 14.8229 -15.3879 -11.3513 2.03953 -4.75985 -2.40814 5.46468 -2.69372 3.24702 -7.52031 3.45174 -2.40922 6.0083 -1.85921 1.98785e-016 -6.36111e-015 -0 4.72477 -9.87974 5.68434e-014 92.7985 3.50417e-015 -90 2.68891 -0.690234 4.02874 -180 7.01671e-015 -180 2.84217e-014 0 -14.9226 -7.95139e-016 -3.18055e-015 3.18055e-015 0 0 3.94939 1.59028e-015 5.56597e-015 -6.36111e-015 0 0 15.0019 2.38542e-015 3.18055e-015 -3.18055e-015 -2.689 -0.690236 4.02875 1.59028e-015 5.56597e-015 -6.36111e-015 9.35075e-005 -0.000392738 14.9226 2.38542e-015 3.18055e-015 -3.18055e-015 6.0207 -9.81639 5.68434e-014 92.7985 3.50417e-015 -90 2.71301 -0.162748 3.99146 -180 7.01671e-015 -180 2.84217e-014 0 -14.9599 -7.95139e-016 -3.18055e-015 3.18055e-015 -2.84217e-014 -0.0431035 3.99141 1.59028e-015 5.56597e-015 -6.36111e-015 0 0 14.9599 2.38542e-015 3.18055e-015 -3.18055e-015 -2.71301 -0.162761 3.99141 1.59028e-015 5.56597e-015 -6.36111e-015 0 0 14.9599 2.38542e-015 3.18055e-015 -3.18055e-015 -8.28467 -6.36093 5.27623 26.141 24.6029 -122.63 21.051 -4.99776e-008 4.9801e-007 58.661 -66.9666 128.616 33.1145 8.3753e-007 -2.8019e-007 117.855 7.01671e-015 180 29.9221 7.10543e-015 -8.52651e-014 4.50293 -2.68852 12.8058 9.62649 2.13163e-014 0 29.859 -1.7467e-015 90 11.8296 1.83674 -5.16916 2.43685 2.6626 -6.45035 1.1653 -12.7157 -16.7361 26.4227 -67.2003 90.6377 16.2308 -5.97551 28.2387 144.231 11.0392 145.48 26.7017 -9.19239 -9.89204 45.7217 -3.15662 -2.77468 4.44874 -7.74942 3.58114 29.859 -1.7467e-015 90 -6.09293 2.26496 -9.59625 -116.092 -9.24999 4.74057 13.2848 -5.74129 -7.13912 35.8626 2.57689 37.7796 14.815 16.9375 15.0957 -33.395 29.2854 -45.0848 23.6904 -6.58016 -3.54465 54.8963 6.16287 -55.5171 1.47758 -6.16068 -2.41079 -0 -3.18055e-015 -0 2.82533 14.5514 -2.84217e-014 4.99157 -9.93923e-017 -13.866 7.87756 -2.84217e-014 5.68434e-014 19.1217 -1.59028e-015 -1.20933 6.52588 2.84217e-014 -1.13687e-013 9.64368e-015 0 8.34118 -9.30511 7.998 11.2048 -6.8505 -4.18474e-016 -90 0 1.63822 1.42109e-014 1.2424e-017 -1.59028e-015 -0 -9.30514 7.99801 -11.2048 173.149 4.18474e-016 -90 0 -5.33813 1.42109e-014 1.61513e-016 -7.95139e-016 -1.98785e-016 
